<svg xmlns="http://www.w3.org/2000/svg" width="32" height="40" viewBox="0 0 32 40">
  <defs>
    <style>
      .cls-1 {
        fill: #336aed;
        fill-rule: evenodd;
      }
    </style>
  </defs>
  <path class="cls-1" d="M1357.01,3682a16,16,0,0,0-14.06,23.66c3.8,7.72,12.96,15.71,13.35,16.06a1.2,1.2,0,0,0,.24.15l0.12,0.05a0.994,0.994,0,0,0,.72,0l0.13-.05a0.963,0.963,0,0,0,.25-0.16c0.43-.37,10.63-9.28,13.93-17.33l0.08-.22,0.06-.14v-0.06l0.08-.21A15.982,15.982,0,0,0,1357.01,3682Zm13.19,21.11-0.14.37-0.07.19c-2.78,6.71-10.89,14.35-12.94,16.23-1.97-1.77-9.28-8.66-12.46-15.09A14.17,14.17,0,1,1,1370.2,3703.11Zm-13.19-12.33a7.22,7.22,0,1,0,7.22,7.23A7.225,7.225,0,0,0,1357.01,3690.78Zm0,12.6a5.37,5.37,0,1,1,5.37-5.37A5.373,5.373,0,0,1,1357.01,3703.38Z" transform="translate(-1341 -3682)"/>
</svg>
