<?xml version="1.0" encoding="iso-8859-1"?>
<!-- Generator: Adobe Illustrator 19.0.0, SVG Export Plug-In . SVG Version: 6.00 Build 0)  -->
<svg version="1.1" id="Capa_1" xmlns="http://www.w3.org/2000/svg" xmlns:xlink="http://www.w3.org/1999/xlink" x="0px" y="0px"
	 viewBox="0 0 512 512" style="enable-background:new 0 0 512 512;" xml:space="preserve">
<g>
	<g>
		<path d="M509.071,231.135c3.905-3.905,3.905-10.237,0-14.143l-75.563-75.563c-3.905-3.905-10.237-3.905-14.143,0l-72.635,72.635
			h-62.28c-3.01-8.611-9.839-15.439-18.45-18.45V100h80c5.523,0,10-4.477,10-10V10c0-5.523-4.477-10-10-10H166
			c-5.523,0-10,4.477-10,10v30h-38.72C113.152,28.361,102.036,20,89,20c-16.542,0-30,13.458-30,30c0,13.036,8.361,24.152,20,28.28
			v83.657H37c-5.523,0-10,4.477-10,10v104c0,5.522,4.477,10,10,10h42v36.621c0,5.522,4.477,10,10,10s10-4.478,10-10v-36.621h42
			c5.523,0,10-4.478,10-10v-104c0-5.523-4.477-10-10-10H99V78.28c8.509-3.018,15.262-9.771,18.28-18.28H156v30
			c0,5.523,4.477,10,10,10h80v95.7c-11.573,4.163-19.873,15.248-19.873,28.237c0,16.542,13.458,30,30,30
			c12.989,0,24.073-8.3,28.237-19.873h62.367l69.706,69.706v85.048c-29.448,4.797-52,30.4-52,61.182c0,34.187,27.813,62,62,62
			s62-27.813,62-62c0-30.782-22.552-56.385-52-61.182V303.77L509.071,231.135z M131,181.937v84H47v-84H131z M89,60
			c-5.514,0-10-4.486-10-10s4.486-10,10-10s10,4.486,10,10S94.514,60,89,60z M176,80V20h160v60H176z M256.127,233.937
			c-5.514,0-10-4.486-10-10c0-5.514,4.486-10,10-10c5.514,0,10,4.486,10,10C266.127,229.451,261.641,233.937,256.127,233.937z
			 M468.437,450c0,23.159-18.841,42-42,42s-42-18.841-42-42c0-22.593,17.933-41.066,40.311-41.957
			c0.55,0.094,1.112,0.153,1.689,0.153c0.577,0,1.139-0.06,1.689-0.153C450.503,408.934,468.437,427.407,468.437,450z
			 M426.898,285.023c-0.154-0.007-0.305-0.023-0.461-0.023s-0.307,0.016-0.461,0.023l-60.96-60.96l61.421-61.421l61.421,61.421
			L426.898,285.023z"/>
	</g>
</g>
<g>
	<g>
		<path d="M96.07,352.371c-1.86-1.86-4.44-2.931-7.07-2.931s-5.21,1.07-7.07,2.931C80.07,354.23,79,356.81,79,359.44
			s1.07,5.21,2.93,7.07c1.86,1.87,4.44,2.93,7.07,2.93c2.63-0.001,5.21-1.06,7.07-2.93c1.86-1.86,2.93-4.44,2.93-7.07
			S97.93,354.23,96.07,352.371z"/>
	</g>
</g>
<g>
	<g>
		<path d="M339.74,446.93c-1.86-1.86-4.44-2.93-7.07-2.93c-2.64,0-5.21,1.069-7.07,2.93c-1.87,1.86-2.93,4.44-2.93,7.07
			s1.06,5.21,2.93,7.069c1.86,1.86,4.43,2.931,7.07,2.931c2.63,0,5.21-1.07,7.07-2.931c1.86-1.859,2.93-4.439,2.93-7.069
			S341.6,448.79,339.74,446.93z"/>
	</g>
</g>
<g>
	<g>
		<path d="M294,444H178v-46c0-5.522-4.477-10-10-10H10c-5.523,0-10,4.478-10,10v104c0,5.522,4.477,10,10,10h158
			c5.523,0,10-4.478,10-10v-38h116c5.523,0,10-4.478,10-10C304,448.478,299.523,444,294,444z M158,492H20v-84h138V492z"/>
	</g>
</g>
<g>
	<g>
		<path d="M211.07,404.93c-1.86-1.86-4.44-2.93-7.07-2.93s-5.21,1.069-7.07,2.93c-1.86,1.86-2.93,4.44-2.93,7.07
			s1.07,5.21,2.93,7.069c1.86,1.86,4.44,2.931,7.07,2.931s5.21-1.07,7.07-2.931c1.86-1.859,2.93-4.439,2.93-7.069
			S212.93,406.79,211.07,404.93z"/>
	</g>
</g>
<g>
	<g>
		<path d="M254.2,404.93c-1.86-1.86-4.44-2.93-7.07-2.93s-5.21,1.069-7.07,2.93c-1.87,1.86-2.93,4.44-2.93,7.07
			s1.06,5.21,2.93,7.069c1.86,1.86,4.44,2.931,7.07,2.931s5.2-1.07,7.07-2.931c1.86-1.859,2.93-4.439,2.93-7.069
			S256.06,406.79,254.2,404.93z"/>
	</g>
</g>
<g>
	<g>
		<path d="M297.32,404.93c-1.86-1.86-4.43-2.93-7.07-2.93c-2.63,0-5.21,1.069-7.07,2.93c-1.86,1.86-2.93,4.44-2.93,7.07
			s1.07,5.21,2.93,7.069c1.86,1.86,4.44,2.931,7.07,2.931c2.64,0,5.21-1.07,7.07-2.931c1.87-1.859,2.93-4.439,2.93-7.069
			S299.19,406.79,297.32,404.93z"/>
	</g>
</g>
<g>
	<g>
		<path d="M297.33,124.3c-1.87-1.86-4.44-2.92-7.08-2.92c-2.63,0-5.21,1.06-7.07,2.92c-1.86,1.86-2.93,4.44-2.93,7.07
			c0,2.64,1.07,5.21,2.93,7.07c1.86,1.87,4.44,2.94,7.07,2.94c2.64,0,5.21-1.07,7.08-2.94c1.86-1.86,2.92-4.43,2.92-7.07
			C300.25,128.74,299.19,126.17,297.33,124.3z"/>
	</g>
</g>
<g>
	<g>
		<path d="M297.32,167.43c-1.86-1.86-4.43-2.93-7.07-2.93c-2.63,0-5.21,1.07-7.07,2.93c-1.86,1.86-2.93,4.44-2.93,7.07
			s1.07,5.21,2.93,7.07s4.44,2.93,7.07,2.93c2.64,0,5.21-1.07,7.07-2.93c1.87-1.86,2.93-4.44,2.93-7.07S299.19,169.29,297.32,167.43
			z"/>
	</g>
</g>
<g>
</g>
<g>
</g>
<g>
</g>
<g>
</g>
<g>
</g>
<g>
</g>
<g>
</g>
<g>
</g>
<g>
</g>
<g>
</g>
<g>
</g>
<g>
</g>
<g>
</g>
<g>
</g>
<g>
</g>
</svg>
